<svg width="48" height="48" viewBox="0 0 48 48" fill="none" xmlns="http://www.w3.org/2000/svg">
    <g clip-path="url(#clip0_1490_88258)">
    <rect width="48" height="48" rx="8" fill="#005E82"/>
    <rect x="-0.5" width="49" height="49" rx="10.388" fill="white"/>
    <path fill-rule="evenodd" clip-rule="evenodd" d="M9.888 0C4.15087 0 -0.5 4.65087 -0.5 10.388V38.612C-0.5 44.3491 4.15087 49 9.888 49H38.112C43.8491 49 48.5 44.3491 48.5 38.612V10.388C48.5 4.65087 43.8491 0 38.112 0H9.888ZM12.8205 16.1705C12.8205 10.2169 17.6468 5.39053 23.6005 5.39053C29.5541 5.39053 34.3805 10.2169 34.3805 16.1705V24.5811C36.5933 24.1063 38.0879 23.3072 38.5875 22.936L40.9516 26.0148C39.8909 26.8029 37.5613 27.9659 34.3805 28.5119V32.8305C34.3805 38.7842 29.5541 43.6105 23.6005 43.6105C17.6468 43.6105 12.8205 38.7842 12.8205 32.8305V30.6745H16.7405V32.8305C16.7405 36.6192 19.8118 39.6905 23.6005 39.6905C27.3891 39.6905 30.4605 36.6192 30.4605 32.8305V28.8135C25.6249 28.7397 22.1917 27.049 20.8616 25.9559L23.3763 22.9949C23.9567 23.4719 26.4815 24.8803 30.4605 24.9546V16.1705C30.4605 12.3819 27.3891 9.31053 23.6005 9.31053C19.8118 9.31053 16.7405 12.3819 16.7405 16.1705V18.4245H12.8205V16.1705Z" fill="#005E82"/>
    </g>
    <defs>
    <clipPath id="clip0_1490_88258">
    <rect width="48" height="48" rx="8" fill="white"/>
    </clipPath>
    </defs>
    </svg>
    