<svg width="32" height="32" viewBox="0 0 32 32" fill="none" xmlns="http://www.w3.org/2000/svg">
    <circle cx="16" cy="16" r="16" fill="#DCDCDE"/>
    <path d="M13 15.25V12.25C13 11.4544 13.3161 10.6913 13.8787 10.1287C14.4413 9.56607 15.2044 9.25 16 9.25C16.7956 9.25 17.5587 9.56607 18.1213 10.1287C18.6839 10.6913 19 11.4544 19 12.25V15.25M10.75 16.75C10.75 16.3522 10.908 15.9706 11.1893 15.6893C11.4706 15.408 11.8522 15.25 12.25 15.25H19.75C20.1478 15.25 20.5294 15.408 20.8107 15.6893C21.092 15.9706 21.25 16.3522 21.25 16.75V21.25C21.25 21.6478 21.092 22.0294 20.8107 22.3107C20.5294 22.592 20.1478 22.75 19.75 22.75H12.25C11.8522 22.75 11.4706 22.592 11.1893 22.3107C10.908 22.0294 10.75 21.6478 10.75 21.25V16.75ZM15.25 19C15.25 19.1989 15.329 19.3897 15.4697 19.5303C15.6103 19.671 15.8011 19.75 16 19.75C16.1989 19.75 16.3897 19.671 16.5303 19.5303C16.671 19.3897 16.75 19.1989 16.75 19C16.75 18.8011 16.671 18.6103 16.5303 18.4697C16.3897 18.329 16.1989 18.25 16 18.25C15.8011 18.25 15.6103 18.329 15.4697 18.4697C15.329 18.6103 15.25 18.8011 15.25 19Z" stroke="#737278" stroke-width="1.2" stroke-linecap="round" stroke-linejoin="round"/>
    </svg>
    